<svg width="24" height="24" viewBox="0 0 24 24" fill="none" xmlns="http://www.w3.org/2000/svg">
<path d="M15.955 0.977144C13.6984 -0.325717 10.9182 -0.325716 8.66153 0.977143L4.58559 3.33039C2.32897 4.63325 0.93884 7.04103 0.93884 9.64675L0.93884 14.3532C0.93884 16.959 2.32898 19.3667 4.58559 20.6696L8.66153 23.0229C10.9182 24.3257 13.6984 24.3257 15.955 23.0229L20.031 20.6696C22.2876 19.3667 23.6777 16.959 23.6777 14.3532L23.6777 9.64675C23.6777 7.04103 22.2876 4.63325 20.031 3.33039L15.955 0.977144Z" fill="#C9C2CB"/>
<path fill-rule="evenodd" clip-rule="evenodd" d="M12.7567 14.5455L11.6658 17.4547H12.7567L13.3703 15.8183H15.9612L16.5749 17.4547H17.6658L15.2112 10.9092H14.1203L13.1717 13.4388L12.0276 12.3082L12.0439 12.2918C12.993 11.2336 13.6694 10.0173 14.0676 8.72999H15.6658V7.63636H11.8476V6.54544H10.7567V7.63636H6.93848V8.72181H13.0312C12.663 9.77453 12.0876 10.7727 11.3021 11.6455C10.7948 11.0809 10.3748 10.4673 10.0421 9.81817H8.95121C9.34938 10.7073 9.89485 11.5473 10.5767 12.3054L7.80301 15.0464L8.57484 15.8182L11.3021 13.0909L12.7567 14.5455ZM14.6658 12.3628L13.7794 14.7274H15.5522L14.6658 12.3628Z" fill="#68556C"/>
</svg>
