<svg width="23" height="24" viewBox="0 0 23 24" fill="none" xmlns="http://www.w3.org/2000/svg">
<path d="M15.2773 0.977144C13.0207 -0.325717 10.2404 -0.325716 7.9838 0.977143L3.90786 3.33039C1.65124 4.63325 0.261106 7.04103 0.261106 9.64675L0.261106 14.3532C0.261106 16.959 1.65124 19.3667 3.90786 20.6696L7.9838 23.0229C10.2404 24.3257 13.0207 24.3257 15.2773 23.0229L19.3532 20.6696C21.6099 19.3667 23 16.959 23 14.3532L23 9.64675C23 7.04103 21.6099 4.63325 19.3532 3.33039L15.2773 0.977144Z" fill="#FECD34"/>
<path fill-rule="evenodd" clip-rule="evenodd" d="M12.079 14.5455L10.988 17.4546H12.079L12.6926 15.8183H15.2835L15.8971 17.4546H16.9881L14.5335 10.9092H13.4426L12.494 13.4388L11.3498 12.3082L11.3662 12.2918C12.3153 11.2336 12.9916 10.0172 13.3898 8.72996H14.988V7.63633H11.1698V6.54541H10.0789V7.63633H6.26074V8.72178H12.3535C11.9853 9.7745 11.4098 10.7727 10.6244 11.6454C10.1171 11.0809 9.69708 10.4672 9.36436 9.81814H8.27347C8.67164 10.7072 9.21712 11.5472 9.89892 12.3054L7.12528 15.0463L7.89711 15.8182L10.6244 13.0909L12.079 14.5455ZM13.9881 12.3628L13.1017 14.7274H14.8744L13.9881 12.3628Z" fill="#422A47"/>
</svg>
