<svg width="109" height="108" viewBox="0 0 109 108" fill="none" xmlns="http://www.w3.org/2000/svg">
<g filter="url(#filter0_d_159_5418)">
<path d="M54.5 70C67.7548 70 78.5 59.2548 78.5 46C78.5 32.7452 67.7548 22 54.5 22C41.2452 22 30.5 32.7452 30.5 46C30.5 59.2548 41.2452 70 54.5 70Z" fill="#FECD34"/>
<path d="M76.5 46C76.5 58.1503 66.6503 68 54.5 68C42.3497 68 32.5 58.1503 32.5 46C32.5 33.8497 42.3497 24 54.5 24C66.6503 24 76.5 33.8497 76.5 46Z" stroke="white" stroke-width="4"/>
</g>
<path fill-rule="evenodd" clip-rule="evenodd" d="M67.75 45.1429V45.5326C67.75 45.971 67.75 46.4229 67.7373 46.8775C67.7373 46.9552 67.7304 47.0359 67.7239 47.1131L67.7239 47.1132C67.721 47.1468 67.7182 47.1798 67.7161 47.2115C67.702 47.3788 67.6815 47.5454 67.6603 47.7057L67.6533 47.7473C67.6257 47.9909 67.5841 48.2479 67.5283 48.5472C67.3853 49.3041 67.1757 50.0468 66.9021 50.7668C65.7234 53.8872 63.4275 56.4584 60.4599 57.9814C60.21 58.1064 59.9523 58.232 59.66 58.357C59.5213 58.4179 59.3728 58.4533 59.2216 58.4615H59.187C58.9135 58.4638 58.6486 58.3661 58.4422 58.1866C58.2358 58.0071 58.1022 57.7584 58.0666 57.4872C58.037 57.2584 58.0778 57.0261 58.1835 56.8211C58.2892 56.616 58.4547 56.448 58.6582 56.3393C58.7076 56.3136 58.7515 56.2946 58.7947 56.2759L58.8114 56.2687C58.8183 56.265 58.8235 56.2633 58.8288 56.2615C58.8339 56.2598 58.8391 56.258 58.846 56.2546C60.3521 55.5886 61.6929 54.5987 62.7728 53.3553C63.8526 52.112 64.6449 50.6458 65.0933 49.0612C65.2182 48.6131 65.3158 48.1578 65.3856 47.6979C65.4895 47.0401 65.5314 46.374 65.5106 45.7084C65.5032 45.3032 65.4706 44.8988 65.4131 44.4976C65.1558 42.5903 64.4102 40.7817 63.2487 39.2471C62.0871 37.7125 60.549 36.5039 58.7832 35.7383C58.7799 35.7348 58.7747 35.733 58.7695 35.7312C58.7643 35.7295 58.7591 35.7277 58.7556 35.7242C58.7457 35.719 58.7346 35.7139 58.7227 35.7085C58.7024 35.6991 58.68 35.6889 58.6582 35.6755C58.4739 35.5846 58.3188 35.4437 58.2106 35.269C58.1024 35.0942 58.0454 34.8926 58.0461 34.6871C58.0413 34.4423 58.117 34.2028 58.2614 34.0051C58.4359 33.7686 58.6953 33.6089 58.9851 33.5596C58.9881 33.5596 58.9931 33.558 58.9981 33.5562L58.9982 33.5562C59.0035 33.5544 59.009 33.5526 59.0126 33.5526C59.0161 33.5526 59.0196 33.5508 59.0232 33.549L59.0232 33.549L59.0232 33.549V33.549L59.0232 33.549C59.0267 33.5473 59.0302 33.5455 59.0338 33.5455L59.0549 33.5385H59.2844L59.3056 33.5455C59.3091 33.5455 59.3126 33.5473 59.3162 33.549L59.3162 33.549L59.3162 33.549C59.3197 33.5508 59.3232 33.5526 59.3268 33.5526C59.4366 33.5732 59.5439 33.6059 59.6466 33.65C60.5927 34.0591 61.489 34.575 62.3181 35.1877C63.1505 35.8002 63.9087 36.5076 64.5773 37.2958C65.2461 38.0856 65.8226 38.9492 66.2956 39.8698C66.8279 40.9064 67.223 42.0078 67.4711 43.1463C67.5551 43.5231 67.6202 43.9039 67.666 44.2872C67.684 44.4113 67.6959 44.5355 67.7077 44.6577V44.6578C67.7145 44.7275 67.7211 44.7966 67.7288 44.8647C67.7298 44.9229 67.7345 44.9809 67.7429 45.0384C67.7485 45.0729 67.7509 45.1079 67.75 45.1429ZM62.0175 40.8894C63.0169 42.4034 63.5493 44.1778 63.5484 45.992C63.5476 47.8003 63.0168 49.5687 62.0215 51.0785C61.0262 52.5882 59.6101 53.7731 57.9484 54.4865C57.8085 54.55 57.6567 54.5832 57.503 54.5839C57.2444 54.582 56.9943 54.4914 56.7945 54.3272C56.5947 54.1631 56.4573 53.9354 56.4051 53.6821C56.353 53.4289 56.3893 53.1654 56.5081 52.9357C56.6268 52.706 56.8207 52.524 57.0575 52.4201C58.317 51.8783 59.3898 50.9787 60.1429 49.8329C60.896 48.6871 61.2962 47.3455 61.2939 45.9744C61.2917 44.6033 60.887 43.263 60.1302 42.1197C59.3734 40.9764 58.2976 40.0804 57.0363 39.5427C56.9008 39.4858 56.778 39.4023 56.6753 39.2972C56.5726 39.1921 56.492 39.0674 56.4383 38.9306C56.3837 38.793 56.3569 38.6459 56.3593 38.4978C56.3617 38.3498 56.3934 38.2037 56.4524 38.0679C56.5369 37.8648 56.6799 37.6915 56.8632 37.57C57.0465 37.4486 57.2619 37.3845 57.4818 37.3859C57.635 37.3842 57.7868 37.415 57.9272 37.4763C59.5957 38.1885 61.0181 39.3754 62.0175 40.8894ZM58.5528 48.5661C59.0226 47.7742 59.2724 46.8712 59.2765 45.9504C59.2765 45.8483 59.263 45.68 59.2498 45.5162L59.2498 45.5162L59.2489 45.5049C59.213 45.1477 59.1385 44.7955 59.0265 44.4544C58.8076 43.7908 58.4499 43.1814 57.9772 42.6668C57.5045 42.1521 56.9277 41.7439 56.2852 41.4694C56.1378 41.4066 55.9794 41.3735 55.8192 41.372C55.7306 41.3743 55.6423 41.3835 55.5552 41.3995C55.3177 41.455 55.1051 41.5869 54.9501 41.7751C54.792 41.9599 54.7012 42.1929 54.6924 42.4359C54.6819 42.5992 54.7081 42.7627 54.7692 42.9145C54.8303 43.0663 54.9247 43.2024 55.0454 43.3128C55.1534 43.4126 55.2782 43.4927 55.4139 43.5493C55.8888 43.7598 56.2925 44.1033 56.5763 44.5383C56.8602 44.9733 57.012 45.4811 57.0135 46.0005C57.015 46.5199 56.8661 47.0286 56.5847 47.4652C56.3034 47.9018 55.9017 48.2476 55.4281 48.4609L55.4069 48.4679C55.3931 48.475 55.3774 48.4819 55.3617 48.4888L55.3617 48.4888L55.3617 48.4888C55.346 48.4957 55.3303 48.5026 55.3165 48.5096C55.1468 48.5971 55.0025 48.7271 54.8977 48.8867C54.793 49.0464 54.7313 49.2305 54.7186 49.421C54.7048 49.6106 54.739 49.8005 54.8181 49.9733C54.8972 50.146 55.0186 50.296 55.1711 50.4094C55.3596 50.5574 55.5922 50.6382 55.8319 50.6389C55.9849 50.6385 56.1363 50.6078 56.2774 50.5485C56.4094 50.4928 56.5414 50.4299 56.66 50.3678C57.4408 49.9474 58.0945 49.3252 58.5528 48.5661ZM52.5767 43.4316V37.6015C52.5752 37.4046 52.5156 37.2125 52.4055 37.0492C52.2954 36.886 52.1395 36.7588 51.9575 36.6837C51.8386 36.6338 51.7109 36.6079 51.5819 36.6075C51.4507 36.6069 51.3208 36.6324 51.1995 36.6826C51.0783 36.7328 50.9683 36.8066 50.8759 36.8997L45.8387 41.9645H42.3984V41.9709H41.9884C41.7256 41.9722 41.474 42.0776 41.2887 42.2641C41.1034 42.4505 40.9996 42.7028 41 42.9656V49.0308C41 49.293 41.1041 49.5444 41.2895 49.7297C41.4749 49.9151 41.7263 50.0192 41.9884 50.0192H42.3984V50.0206H45.821L50.8788 55.0854C50.9711 55.1786 51.0812 55.2524 51.2024 55.3026C51.3236 55.3528 51.4536 55.3783 51.5848 55.3777C51.716 55.3773 51.846 55.3514 51.9674 55.3015C52.1494 55.2272 52.305 55.1 52.4141 54.9364C52.5232 54.7728 52.5808 54.5803 52.5795 54.3837V48.5522L52.5767 43.4316Z" fill="white"/>
<defs>
<filter id="filter0_d_159_5418" x="0.5" y="0" width="108" height="108" filterUnits="userSpaceOnUse" color-interpolation-filters="sRGB">
<feFlood flood-opacity="0" result="BackgroundImageFix"/>
<feColorMatrix in="SourceAlpha" type="matrix" values="0 0 0 0 0 0 0 0 0 0 0 0 0 0 0 0 0 0 127 0" result="hardAlpha"/>
<feOffset dy="8"/>
<feGaussianBlur stdDeviation="15"/>
<feColorMatrix type="matrix" values="0 0 0 0 0.0705882 0 0 0 0 0.0980392 0 0 0 0 0.356863 0 0 0 0.1 0"/>
<feBlend mode="normal" in2="BackgroundImageFix" result="effect1_dropShadow_159_5418"/>
<feBlend mode="normal" in="SourceGraphic" in2="effect1_dropShadow_159_5418" result="shape"/>
</filter>
</defs>
</svg>
