<svg width="24" height="24" viewBox="0 0 24 24" fill="none" xmlns="http://www.w3.org/2000/svg">
<path d="M12 24C18.6274 24 24 18.6274 24 12C24 5.37258 18.6274 0 12 0C5.37258 0 0 5.37258 0 12C0 18.6274 5.37258 24 12 24Z" fill="#FECD34"/>
<path fill-rule="evenodd" clip-rule="evenodd" d="M17.8889 11.6191V11.7923C17.8889 11.9871 17.8889 12.188 17.8832 12.39C17.8832 12.4245 17.8802 12.4604 17.8773 12.4947L17.8773 12.4947C17.876 12.5097 17.8748 12.5243 17.8738 12.5384C17.8675 12.6128 17.8585 12.6869 17.849 12.7581L17.8459 12.7766C17.8337 12.8848 17.8151 12.9991 17.7904 13.1321C17.7268 13.4685 17.6337 13.7986 17.512 14.1186C16.9882 15.5054 15.9678 16.6482 14.6488 17.3251C14.5378 17.3806 14.4232 17.4365 14.2933 17.492C14.2317 17.5191 14.1657 17.5348 14.0985 17.5385H14.0831C13.9616 17.5395 13.8438 17.496 13.7521 17.4163C13.6604 17.3365 13.601 17.226 13.5851 17.1054C13.572 17.0038 13.5901 16.9005 13.6371 16.8094C13.6841 16.7182 13.7577 16.6436 13.8481 16.5952C13.87 16.5839 13.8895 16.5754 13.9087 16.5671L13.9162 16.5639C13.9192 16.5623 13.9215 16.5615 13.9239 16.5607C13.9262 16.5599 13.9285 16.5591 13.9315 16.5576C14.601 16.2616 15.1969 15.8217 15.6768 15.2691C16.1567 14.7164 16.5089 14.0648 16.7081 13.3605C16.7637 13.1614 16.807 12.959 16.8381 12.7546C16.8842 12.4623 16.9028 12.1662 16.8936 11.8704C16.8903 11.6903 16.8758 11.5106 16.8503 11.3323C16.7359 10.4846 16.4046 9.68078 15.8883 8.99874C15.3721 8.31669 14.6884 7.77953 13.9036 7.43928C13.9022 7.43769 13.8999 7.4369 13.8975 7.43611C13.8953 7.43533 13.8929 7.43455 13.8914 7.433C13.887 7.43069 13.882 7.42841 13.8768 7.426L13.8768 7.426L13.8768 7.42599C13.8677 7.42186 13.8578 7.41729 13.8481 7.41135C13.7662 7.37093 13.6972 7.30833 13.6491 7.23067C13.601 7.15301 13.5757 7.06341 13.576 6.97206C13.5739 6.86328 13.6075 6.7568 13.6717 6.66896C13.7493 6.56384 13.8646 6.49286 13.9934 6.47096C13.9947 6.47096 13.9969 6.47022 13.9992 6.46945C14.0015 6.46865 14.004 6.46782 14.0056 6.46782C14.0072 6.46782 14.0087 6.46704 14.0103 6.46626C14.0119 6.46547 14.0134 6.46469 14.015 6.46469L14.0244 6.46155H14.1264L14.1358 6.46469C14.1374 6.46469 14.139 6.46547 14.1405 6.46626C14.1421 6.46704 14.1437 6.46782 14.1452 6.46782C14.1941 6.47698 14.2417 6.4915 14.2874 6.51113C14.7079 6.69296 15.1062 6.92225 15.4747 7.19453C15.8447 7.46675 16.1816 7.78119 16.4788 8.13146C16.776 8.48252 17.0323 8.86634 17.2425 9.27549C17.479 9.7362 17.6547 10.2257 17.7649 10.7317C17.8023 10.8992 17.8312 11.0684 17.8516 11.2388C17.8595 11.2939 17.8649 11.3491 17.8701 11.4035L17.8701 11.4035L17.8701 11.4036C17.8731 11.4345 17.8761 11.4652 17.8795 11.4954C17.8799 11.5213 17.882 11.5471 17.8857 11.5726C17.8882 11.588 17.8893 11.6035 17.8889 11.6191ZM15.3411 9.72864C15.7853 10.4015 16.0219 11.1902 16.0215 11.9964C16.0212 12.8001 15.7852 13.5861 15.3429 14.2571C14.9005 14.9281 14.2711 15.4547 13.5326 15.7718C13.4704 15.8 13.403 15.8148 13.3346 15.8151C13.2197 15.8142 13.1086 15.7739 13.0198 15.701C12.931 15.6281 12.8699 15.5269 12.8467 15.4143C12.8236 15.3017 12.8397 15.1846 12.8925 15.0825C12.9452 14.9805 13.0314 14.8996 13.1367 14.8534C13.6964 14.6126 14.1732 14.2128 14.5079 13.7035C14.8426 13.1943 15.0205 12.598 15.0195 11.9886C15.0185 11.3793 14.8387 10.7836 14.5023 10.2754C14.1659 9.7673 13.6878 9.36907 13.1272 9.13011C13.067 9.10482 13.0125 9.06771 12.9668 9.02099C12.9212 8.97426 12.8854 8.91886 12.8615 8.85806C12.8372 8.79689 12.8253 8.73152 12.8264 8.66572C12.8274 8.59992 12.8415 8.53498 12.8677 8.47463C12.9053 8.38438 12.9688 8.30735 13.0503 8.25336C13.1318 8.19938 13.2275 8.17089 13.3252 8.17152C13.3933 8.17078 13.4608 8.18447 13.5232 8.21169C14.2648 8.52822 14.8969 9.05573 15.3411 9.72864ZM13.8013 13.1405C14.0101 12.7885 14.1211 12.3872 14.1229 11.978C14.1229 11.9326 14.1169 11.8578 14.111 11.785L14.111 11.785L14.1106 11.78C14.0947 11.6212 14.0615 11.4647 14.0118 11.3131C13.9145 11.0181 13.7555 10.7473 13.5454 10.5186C13.3354 10.2898 13.079 10.1084 12.7934 9.98642C12.7279 9.9585 12.6575 9.94378 12.5863 9.94312C12.5469 9.94414 12.5077 9.94824 12.469 9.95536C12.3634 9.98 12.269 10.0387 12.2001 10.1223C12.1298 10.2044 12.0894 10.308 12.0855 10.416C12.0808 10.4885 12.0925 10.5612 12.1197 10.6287C12.1468 10.6961 12.1888 10.7566 12.2424 10.8057C12.2904 10.8501 12.3459 10.8856 12.4062 10.9108C12.6172 11.0044 12.7967 11.157 12.9228 11.3504C13.049 11.5437 13.1164 11.7694 13.1171 12.0002C13.1178 12.2311 13.0516 12.4572 12.9265 12.6512C12.8015 12.8453 12.623 12.999 12.4125 13.0937L12.4031 13.0969C12.397 13.1 12.39 13.1031 12.383 13.1061C12.376 13.1092 12.369 13.1123 12.3629 13.1154C12.2875 13.1543 12.2233 13.212 12.1768 13.283C12.1302 13.354 12.1028 13.4358 12.0971 13.5205C12.091 13.6047 12.1062 13.6891 12.1414 13.7659C12.1765 13.8427 12.2305 13.9094 12.2983 13.9598C12.3821 14.0255 12.4854 14.0614 12.592 14.0617C12.66 14.0616 12.7273 14.0479 12.79 14.0216C12.8486 13.9968 12.9073 13.9689 12.96 13.9413C13.307 13.7544 13.5975 13.4779 13.8013 13.1405ZM11.1452 10.8585V8.26734C11.1445 8.17982 11.1181 8.09444 11.0691 8.02189C11.0202 7.94933 10.9509 7.89282 10.87 7.85943C10.8171 7.83726 10.7604 7.82575 10.7031 7.82555C10.6448 7.82529 10.587 7.83664 10.5331 7.85895C10.4793 7.88125 10.4304 7.91405 10.3893 7.95545L8.15052 10.2065H6.62149V10.2093H6.43929C6.32247 10.2099 6.21065 10.2567 6.12831 10.3396C6.04597 10.4225 5.99983 10.5346 6 10.6514V13.347C6 13.4636 6.04628 13.5753 6.12866 13.6577C6.21105 13.74 6.32278 13.7863 6.43929 13.7863H6.62149V13.787H8.14267L10.3906 16.038C10.4316 16.0794 10.4805 16.1122 10.5344 16.1345C10.5883 16.1568 10.646 16.1681 10.7043 16.1679C10.7627 16.1677 10.8204 16.1562 10.8744 16.134C10.9553 16.101 11.0245 16.0445 11.073 15.9718C11.1214 15.8991 11.147 15.8135 11.1464 15.7261V13.1343L11.1452 10.8585Z" fill="white"/>
</svg>
