<svg width="164" height="168" viewBox="0 0 164 168" fill="none" xmlns="http://www.w3.org/2000/svg">
<g filter="url(#filter0_d_98_7635)">
<path d="M82 129.5C108.51 129.5 130 108.01 130 81.5C130 54.9903 108.51 33.5 82 33.5C55.4903 33.5 34 54.9903 34 81.5C34 108.01 55.4903 129.5 82 129.5Z" fill="#FECD34"/>
<path d="M128 81.5C128 106.905 107.405 127.5 82 127.5C56.5949 127.5 36 106.905 36 81.5C36 56.0949 56.5949 35.5 82 35.5C107.405 35.5 128 56.0949 128 81.5Z" stroke="white" stroke-width="4"/>
</g>
<path fill-rule="evenodd" clip-rule="evenodd" d="M109.5 79.8493V80.5999C109.5 81.4442 109.5 82.3144 109.475 83.1901C109.475 83.3397 109.461 83.4952 109.448 83.6438L109.448 83.6438L109.448 83.6447C109.442 83.7092 109.436 83.7724 109.432 83.8332C109.404 84.1554 109.363 84.4763 109.321 84.785L109.307 84.8652C109.251 85.3343 109.168 85.8292 109.057 86.4057C108.771 87.8634 108.351 89.2939 107.804 90.6806C105.447 96.6902 100.855 101.642 94.9198 104.575C94.4199 104.816 93.9046 105.058 93.32 105.299C93.0427 105.416 92.7456 105.484 92.4432 105.5H92.374C91.827 105.504 91.2972 105.316 90.8844 104.97C90.4717 104.625 90.2044 104.146 90.1331 103.624C90.0741 103.183 90.1557 102.735 90.367 102.341C90.5784 101.946 90.9095 101.622 91.3164 101.413C91.4152 101.363 91.5029 101.327 91.5894 101.291L91.6228 101.277C91.6365 101.27 91.6469 101.266 91.6576 101.263C91.6678 101.26 91.6782 101.256 91.692 101.25C94.7043 99.967 97.3858 98.0605 99.5455 95.6659C101.705 93.2712 103.29 90.4474 104.187 87.3956C104.436 86.5326 104.632 85.6558 104.771 84.77C104.979 83.5032 105.063 82.2203 105.021 80.9384C105.006 80.158 104.941 79.3792 104.826 78.6065C104.312 74.9331 102.82 71.45 100.497 68.4945C98.1743 65.539 95.0979 63.2113 91.5663 61.7368C91.5599 61.7299 91.5495 61.7265 91.5389 61.7231C91.5286 61.7197 91.5182 61.7163 91.5112 61.7096C91.4915 61.6996 91.4692 61.6898 91.4455 61.6793L91.4454 61.6793C91.4049 61.6613 91.3601 61.6416 91.3164 61.6158C90.9477 61.4407 90.6376 61.1694 90.4211 60.8329C90.2047 60.4963 90.0907 60.1081 90.0922 59.7122C90.0827 59.2408 90.2339 58.7794 90.5228 58.3988C90.8718 57.9432 91.3906 57.6357 91.9701 57.5408C91.9763 57.5408 91.9862 57.5376 91.9963 57.5343L91.9963 57.5343C92.007 57.5308 92.0179 57.5272 92.0252 57.5272C92.0322 57.5272 92.0393 57.5238 92.0463 57.5204L92.0464 57.5204L92.0464 57.5204C92.0534 57.517 92.0605 57.5136 92.0675 57.5136L92.1099 57.5H92.5688L92.6112 57.5136C92.6182 57.5136 92.6253 57.517 92.6323 57.5204L92.6324 57.5204C92.6394 57.5238 92.6465 57.5272 92.6535 57.5272C92.8733 57.5669 93.0878 57.6298 93.2932 57.7148C95.1855 58.5028 96.9781 59.4964 98.6361 60.6762C100.301 61.8559 101.817 63.2184 103.155 64.7363C104.492 66.2575 105.645 67.9208 106.591 69.6937C107.656 71.6901 108.446 73.8114 108.942 76.0041C109.11 76.7298 109.24 77.4631 109.332 78.2013C109.368 78.4404 109.392 78.6794 109.415 78.9149V78.9149L109.415 78.915C109.429 79.0492 109.442 79.1823 109.458 79.3136C109.46 79.4255 109.469 79.5373 109.486 79.6481C109.497 79.7146 109.502 79.782 109.5 79.8493ZM98.035 71.6574C100.034 74.5733 101.099 77.9907 101.097 81.4846C101.095 84.9672 100.034 88.3731 98.0429 91.2808C96.0523 94.1885 93.2202 96.4705 89.8969 97.8444C89.6169 97.9666 89.3133 98.0306 89.0059 98.032C88.4888 98.0282 87.9887 97.8537 87.5891 97.5376C87.1894 97.2215 86.9146 96.783 86.8103 96.2953C86.706 95.8075 86.7787 95.3001 87.0161 94.8577C87.2536 94.4153 87.6414 94.0647 88.1149 93.8646C90.634 92.8211 92.7796 91.0886 94.2858 88.8819C95.7919 86.6752 96.5923 84.0914 96.5878 81.4507C96.5833 78.8101 95.774 76.2287 94.2604 74.0268C92.7467 71.8249 90.5952 70.0992 88.0726 69.0638C87.8015 68.9542 87.5561 68.7934 87.3507 68.5909C87.1453 68.3884 86.9841 68.1484 86.8766 67.8849C86.7675 67.6198 86.7137 67.3366 86.7186 67.0514C86.7234 66.7663 86.7867 66.4849 86.9049 66.2234C87.0737 65.8323 87.3597 65.4985 87.7264 65.2645C88.093 65.0306 88.5237 64.9071 88.9636 64.9099C89.27 64.9067 89.5736 64.966 89.8545 65.0839C93.1915 66.4556 96.0362 68.7415 98.035 71.6574ZM91.1056 86.4421C92.0452 84.9169 92.5449 83.1778 92.5529 81.4045C92.5529 81.2078 92.5259 80.8837 92.4997 80.5683L92.4996 80.5682L92.4978 80.5465C92.4261 79.8586 92.2769 79.1802 92.0531 78.5232C91.6151 77.2452 90.8997 76.0716 89.9544 75.0804C89.0091 74.0892 87.8555 73.3032 86.5703 72.7745C86.2755 72.6535 85.9588 72.5897 85.6384 72.5868C85.4612 72.5912 85.2846 72.609 85.1103 72.6399C84.6355 72.7466 84.2103 73.0008 83.9002 73.3632C83.584 73.7192 83.4023 74.1678 83.3848 74.6359C83.3638 74.9503 83.4163 75.2653 83.5385 75.5576C83.6606 75.8498 83.8494 76.112 84.0908 76.3246C84.3069 76.5169 84.5564 76.6711 84.8279 76.7801C85.7775 77.1856 86.5849 77.8471 87.1526 78.6849C87.7203 79.5226 88.0239 80.5007 88.0269 81.501C88.0299 82.5013 87.7321 83.4811 87.1694 84.3219C86.6068 85.1628 85.8034 85.8288 84.8562 86.2395L84.8138 86.2531C84.7863 86.2667 84.7549 86.2799 84.7235 86.2932L84.7234 86.2932C84.692 86.3065 84.6606 86.3198 84.633 86.3334C84.2935 86.5019 84.005 86.7521 83.7955 87.0597C83.586 87.3672 83.4625 87.7217 83.4371 88.0887C83.4095 88.4537 83.478 88.8195 83.6362 89.1522C83.7944 89.485 84.0372 89.7739 84.3422 89.9923C84.7193 90.2773 85.1844 90.4328 85.6638 90.4342C85.9698 90.4334 86.2727 90.3743 86.5548 90.2602C86.8188 90.1527 87.0829 90.0317 87.3201 89.9121C88.8816 89.1024 90.1889 87.9041 91.1056 86.4421ZM79.1533 76.5535V65.3251C79.1504 64.9458 79.0313 64.5759 78.811 64.2615C78.5907 63.9471 78.2791 63.7022 77.915 63.5575C77.6771 63.4614 77.4218 63.4115 77.1639 63.4107C76.9015 63.4096 76.6415 63.4588 76.3991 63.5554C76.1567 63.652 75.9366 63.7942 75.7519 63.9736L65.6773 73.728H58.7967V73.7402H57.9768C57.4511 73.7428 56.9479 73.9458 56.5774 74.3049C56.2069 74.664 55.9992 75.1498 56 75.656V87.3372C56 87.842 56.2083 88.3262 56.579 88.6832C56.9497 89.0402 57.4525 89.2407 57.9768 89.2407H58.7967V89.2435H65.642L75.7575 98.9979C75.9423 99.1773 76.1623 99.3194 76.4047 99.4161C76.6472 99.5127 76.9071 99.5619 77.1695 99.5608C77.4321 99.56 77.692 99.5102 77.9348 99.414C78.2989 99.2708 78.6101 99.026 78.8283 98.7109C79.0465 98.3958 79.1617 98.0251 79.159 97.6464V86.4153L79.1533 76.5535Z" fill="white"/>
<defs>
<filter id="filter0_d_98_7635" x="4" y="11.5" width="156" height="156" filterUnits="userSpaceOnUse" color-interpolation-filters="sRGB">
<feFlood flood-opacity="0" result="BackgroundImageFix"/>
<feColorMatrix in="SourceAlpha" type="matrix" values="0 0 0 0 0 0 0 0 0 0 0 0 0 0 0 0 0 0 127 0" result="hardAlpha"/>
<feOffset dy="8"/>
<feGaussianBlur stdDeviation="15"/>
<feColorMatrix type="matrix" values="0 0 0 0 0.0705882 0 0 0 0 0.0980392 0 0 0 0 0.356863 0 0 0 0.1 0"/>
<feBlend mode="normal" in2="BackgroundImageFix" result="effect1_dropShadow_98_7635"/>
<feBlend mode="normal" in="SourceGraphic" in2="effect1_dropShadow_98_7635" result="shape"/>
</filter>
</defs>
</svg>
