<svg width="17" height="17" viewBox="0 0 17 17" fill="none" xmlns="http://www.w3.org/2000/svg">
<path fill-rule="evenodd" clip-rule="evenodd" d="M15.7846 1.28033C16.0775 0.987437 16.0775 0.512563 15.7846 0.21967C15.4917 -0.0732233 15.0168 -0.0732233 14.7239 0.21967L8.00212 6.94146L1.28033 0.21967C0.987437 -0.0732233 0.512563 -0.0732233 0.21967 0.21967C-0.0732233 0.512563 -0.0732233 0.987437 0.21967 1.28033L6.94146 8.00212L0.21967 14.7239C-0.0732233 15.0168 -0.0732233 15.4917 0.21967 15.7846C0.512563 16.0775 0.987437 16.0775 1.28033 15.7846L8.00212 9.06278L14.7239 15.7846C15.0168 16.0775 15.4917 16.0775 15.7846 15.7846C16.0775 15.4917 16.0775 15.0168 15.7846 14.7239L9.06278 8.00212L15.7846 1.28033Z" fill="#E5383D"/>
</svg>
